<svg xmlns="http://www.w3.org/2000/svg" viewBox="0 0 800 600" role="img" aria-label="Three pots in a row">
<rect width="800" height="600" fill="#f6faf4"/><rect x="0" y="430" width="800" height="170" fill="#a8cdb2"/><path d="M140 330H260L245.6 430H154.4Z" fill="#d9a27a"/><rect x="135.2" y="316.0" width="129.60000000000002" height="16.0" rx="5.0" fill="#b97f5c"/><path d="M200 330V250" stroke="#2c6b46" stroke-width="6" stroke-linecap="round"/><g transform="rotate(-35 180 260)"><path d="M180 224 C200 238.4 200 278.0 180 296 C160 278.0 160 238.4 180 224Z" fill="#4f9a68"/></g><g transform="rotate(30 220 256)"><path d="M220 220 C240 234.4 240 274.0 220 292 C200 274.0 200 234.4 220 220Z" fill="#4f9a68"/></g><path d="M340 330H460L445.6 430H354.4Z" fill="#d9a27a"/><rect x="335.2" y="316.0" width="129.60000000000002" height="16.0" rx="5.0" fill="#b97f5c"/><path d="M400 330V230" stroke="#2c6b46" stroke-width="6" stroke-linecap="round"/><g transform="rotate(-35 380 240)"><path d="M380 204 C400 218.4 400 258.0 380 276 C360 258.0 360 218.4 380 204Z" fill="#4f9a68"/></g><g transform="rotate(30 420 236)"><path d="M420 200 C440 214.4 440 254.0 420 272 C400 254.0 400 214.4 420 200Z" fill="#4f9a68"/></g><path d="M540 330H660L645.6 430H554.4Z" fill="#d9a27a"/><rect x="535.2" y="316.0" width="129.60000000000002" height="16.0" rx="5.0" fill="#b97f5c"/><path d="M600 330V210" stroke="#2c6b46" stroke-width="6" stroke-linecap="round"/><g transform="rotate(-35 580 220)"><path d="M580 184 C600 198.4 600 238.0 580 256 C560 238.0 560 198.4 580 184Z" fill="#4f9a68"/></g><g transform="rotate(30 620 216)"><path d="M620 180 C640 194.4 640 234.0 620 252 C600 234.0 600 194.4 620 180Z" fill="#4f9a68"/></g>
</svg>
