<svg xmlns="http://www.w3.org/2000/svg" viewBox="0 0 800 600" role="img" aria-label="Rose and cyan bars"><defs><filter id="g" x="-30%" y="-30%" width="160%" height="160%"><feGaussianBlur stdDeviation="12"/></filter></defs><rect width="800" height="600" fill="#18181b"/><path d="M100 0V600" stroke="#f4f4f5" stroke-opacity="0.05"/><path d="M200 0V600" stroke="#f4f4f5" stroke-opacity="0.05"/><path d="M300 0V600" stroke="#f4f4f5" stroke-opacity="0.05"/><path d="M400 0V600" stroke="#f4f4f5" stroke-opacity="0.05"/><path d="M500 0V600" stroke="#f4f4f5" stroke-opacity="0.05"/><path d="M600 0V600" stroke="#f4f4f5" stroke-opacity="0.05"/><path d="M700 0V600" stroke="#f4f4f5" stroke-opacity="0.05"/><path d="M0 100H800" stroke="#f4f4f5" stroke-opacity="0.05"/><path d="M0 200H800" stroke="#f4f4f5" stroke-opacity="0.05"/><path d="M0 300H800" stroke="#f4f4f5" stroke-opacity="0.05"/><path d="M0 400H800" stroke="#f4f4f5" stroke-opacity="0.05"/><path d="M0 500H800" stroke="#f4f4f5" stroke-opacity="0.05"/><line x1="160" y1="480" x2="160" y2="300" fill="none" stroke="#f43f5e" stroke-width="24" opacity="0.7" filter="url(#g)"/><line x1="160" y1="480" x2="160" y2="300" fill="none" stroke="#f43f5e" stroke-width="12" stroke-linecap="round" stroke-linejoin="round"/><line x1="280" y1="480" x2="280" y2="200" fill="none" stroke="#22d3ee" stroke-width="24" opacity="0.7" filter="url(#g)"/><line x1="280" y1="480" x2="280" y2="200" fill="none" stroke="#22d3ee" stroke-width="12" stroke-linecap="round" stroke-linejoin="round"/><line x1="400" y1="480" x2="400" y2="340" fill="none" stroke="#f43f5e" stroke-width="24" opacity="0.7" filter="url(#g)"/><line x1="400" y1="480" x2="400" y2="340" fill="none" stroke="#f43f5e" stroke-width="12" stroke-linecap="round" stroke-linejoin="round"/><line x1="520" y1="480" x2="520" y2="140" fill="none" stroke="#22d3ee" stroke-width="24" opacity="0.7" filter="url(#g)"/><line x1="520" y1="480" x2="520" y2="140" fill="none" stroke="#22d3ee" stroke-width="12" stroke-linecap="round" stroke-linejoin="round"/><line x1="640" y1="480" x2="640" y2="260" fill="none" stroke="#f43f5e" stroke-width="24" opacity="0.7" filter="url(#g)"/><line x1="640" y1="480" x2="640" y2="260" fill="none" stroke="#f43f5e" stroke-width="12" stroke-linecap="round" stroke-linejoin="round"/></svg>
