<svg xmlns="http://www.w3.org/2000/svg" viewBox="0 0 640 400" role="img" aria-label="A mug of coffee, steaming">
<rect width="640" height="400" fill="#d4e3ff"/><path d="M210 130h230v150a50 50 0 0 1-50 50H260a50 50 0 0 1-50-50z" fill="#111111" transform="translate(10 10)"/><path d="M210 130h230v150a50 50 0 0 1-50 50H260a50 50 0 0 1-50-50z" fill="#ffd400" stroke="#111111" stroke-width="3" stroke-linejoin="round" stroke-linecap="round"/><path d="M440 160h30a40 40 0 0 1 0 80h-30" fill="#ffd3df" stroke="#111111" stroke-width="3" stroke-linejoin="round" stroke-linecap="round"/><rect x="210" y="130" width="230" height="34" fill="#ffffff" stroke="#111111" stroke-width="3" stroke-linejoin="round" stroke-linecap="round"/><path d="M280 100q-20-20 0-40M330 100q-20-20 0-40M380 100q-20-20 0-40" fill="none" stroke="#111111" stroke-width="3" stroke-linejoin="round" stroke-linecap="round"/>
</svg>
