<svg xmlns="http://www.w3.org/2000/svg" viewBox="0 0 800 600" role="img" aria-label="Peak"><rect width="800" height="600" fill="#ffffff"/><path d="M0 40h800" stroke="#d2dfeb" stroke-width="1"/><path d="M0 70h800" stroke="#d2dfeb" stroke-width="1"/><path d="M0 100h800" stroke="#d2dfeb" stroke-width="1"/><path d="M0 130h800" stroke="#d2dfeb" stroke-width="1"/><path d="M0 160h800" stroke="#d2dfeb" stroke-width="1"/><path d="M0 190h800" stroke="#d2dfeb" stroke-width="1"/><path d="M0 220h800" stroke="#d2dfeb" stroke-width="1"/><path d="M0 250h800" stroke="#d2dfeb" stroke-width="1"/><path d="M0 280h800" stroke="#d2dfeb" stroke-width="1"/><path d="M0 310h800" stroke="#d2dfeb" stroke-width="1"/><path d="M0 340h800" stroke="#d2dfeb" stroke-width="1"/><path d="M0 370h800" stroke="#d2dfeb" stroke-width="1"/><path d="M0 400h800" stroke="#d2dfeb" stroke-width="1"/><path d="M0 430h800" stroke="#d2dfeb" stroke-width="1"/><path d="M0 460h800" stroke="#d2dfeb" stroke-width="1"/><path d="M0 490h800" stroke="#d2dfeb" stroke-width="1"/><path d="M0 520h800" stroke="#d2dfeb" stroke-width="1"/><path d="M0 550h800" stroke="#d2dfeb" stroke-width="1"/><path d="M0 580h800" stroke="#d2dfeb" stroke-width="1"/><path d="M400 140 L620 460 H180Z" fill="#1c5aa3"/></svg>
