<svg xmlns="http://www.w3.org/2000/svg" viewBox="0 0 1200 500" role="img" aria-label="A note over a ruled sheet"><rect width="1200" height="500" fill="#f4f7fb"/><path d="M0 60h1200" stroke="#d2dfeb" stroke-width="1"/><path d="M0 88h1200" stroke="#d2dfeb" stroke-width="1"/><path d="M0 116h1200" stroke="#d2dfeb" stroke-width="1"/><path d="M0 144h1200" stroke="#d2dfeb" stroke-width="1"/><path d="M0 172h1200" stroke="#d2dfeb" stroke-width="1"/><path d="M0 200h1200" stroke="#d2dfeb" stroke-width="1"/><path d="M0 228h1200" stroke="#d2dfeb" stroke-width="1"/><path d="M0 256h1200" stroke="#d2dfeb" stroke-width="1"/><path d="M0 284h1200" stroke="#d2dfeb" stroke-width="1"/><path d="M0 312h1200" stroke="#d2dfeb" stroke-width="1"/><path d="M0 340h1200" stroke="#d2dfeb" stroke-width="1"/><path d="M0 368h1200" stroke="#d2dfeb" stroke-width="1"/><path d="M0 396h1200" stroke="#d2dfeb" stroke-width="1"/><path d="M0 424h1200" stroke="#d2dfeb" stroke-width="1"/><path d="M0 452h1200" stroke="#d2dfeb" stroke-width="1"/><path d="M0 480h1200" stroke="#d2dfeb" stroke-width="1"/><rect x="120" y="70" width="620" height="360" rx="6" fill="#ffffff" stroke="#d2dfeb"/><rect x="120" y="70" width="620" height="28" rx="6" fill="#e2eefa"/><rect x="120" y="92" width="620" height="6" fill="#e2eefa"/><path d="M120 98h620" stroke="#d2dfeb"/><circle cx="134" cy="84" r="3" fill="#1c5aa3"/><rect x="146" y="81" width="186" height="6" rx="3" fill="#a8bdd1"/><rect x="138" y="114" width="341" height="10" rx="3" fill="#142130"/><rect x="138" y="136" width="526" height="6" rx="3" fill="#a8bdd1"/><rect x="138" y="154" width="409" height="6" rx="3" fill="#a8bdd1"/><rect x="138" y="172" width="526" height="6" rx="3" fill="#a8bdd1"/><rect x="138" y="190" width="409" height="6" rx="3" fill="#a8bdd1"/><rect x="138" y="208" width="526" height="6" rx="3" fill="#a8bdd1"/><rect x="138" y="226" width="409" height="6" rx="3" fill="#a8bdd1"/><rect x="138" y="244" width="526" height="6" rx="3" fill="#a8bdd1"/><rect x="138" y="262" width="409" height="6" rx="3" fill="#a8bdd1"/><rect x="800" y="140" width="280" height="220" rx="6" fill="#ffffff" stroke="#d2dfeb"/><rect x="800" y="140" width="280" height="28" rx="6" fill="#e2eefa"/><rect x="800" y="162" width="280" height="6" fill="#e2eefa"/><path d="M800 168h280" stroke="#d2dfeb"/><circle cx="814" cy="154" r="3" fill="#1c5aa3"/><rect x="826" y="151" width="84" height="6" rx="3" fill="#a8bdd1"/><rect x="818" y="184" width="168" height="10" rx="3" fill="#142130"/><rect x="818" y="206" width="220" height="6" rx="3" fill="#a8bdd1"/><rect x="818" y="224" width="171" height="6" rx="3" fill="#a8bdd1"/><rect x="818" y="242" width="220" height="6" rx="3" fill="#a8bdd1"/><rect x="818" y="260" width="171" height="6" rx="3" fill="#a8bdd1"/><rect x="138" y="184" width="200" height="14" rx="3" fill="#8cc0f0" opacity=".7"/></svg>
